Coordinates
version=1
nRows=28
nColumns=34
inDegrees=no

Units are S.I. units (second, meters, Newtons, ...)
If the header above contains a line with 'inDegrees', this indicates whether rotational values are in degrees (yes) or radians (no).

endheader
time	pelvis_tilt	pelvis_list	pelvis_rotation	pelvis_tx	pelvis_ty	pelvis_tz	hip_flexion_r	hip_adduction_r	hip_rotation_r	knee_angle_r	ankle_angle_r	subtalar_angle_r	mtp_angle_r	hip_flexion_l	hip_adduction_l	hip_rotation_l	knee_angle_l	ankle_angle_l	subtalar_angle_l	mtp_angle_l	lumbar_extension	lumbar_bending	lumbar_rotation	arm_flex_r	arm_add_r	arm_rot_r	elbow_flex_r	pro_sup_r	arm_flex_l	arm_add_l	arm_rot_l	elbow_flex_l	pro_sup_l
1.98	-0.33399	0.0407613	-0.00525921	-0.0919994	1.31663	-0.618817	0.348981	-0.137063	-0.551303	0.146008	-0.657003	0.0723923	-0.129736	0.326276	0.0152947	-0.291826	0.0124837	-0.665665	-0.00404308	-0.129736	0.0735087	-0.0935452	0.153621	2.80638	-0.315525	1.53683	0.834223	1.91106	2.55293	-0.136548	1.11402	1.00653	1.6726
1.99	-0.328006	0.0271408	-0.00171528	-0.0921832	1.34176	-0.619638	0.338615	-0.124505	-0.533239	0.159001	-0.388671	-0.105747	-0.129736	0.32879	0.000260851	-0.286408	0.0401733	-0.685348	0.00383636	-0.129736	0.0666071	-0.0736732	0.143931	2.80776	-0.332607	1.49074	0.918996	1.96475	2.53317	-0.176975	1.09074	1.08738	1.70133
2	-0.319075	0.0329237	0.00514893	-0.0911262	1.36387	-0.620066	0.326665	-0.127577	-0.542158	0.166746	-0.632254	0.217399	-0.129736	0.319067	0.0070698	-0.281926	0.0492888	-0.696073	0.00988595	-0.129736	0.0578411	-0.0777385	0.126547	2.80115	-0.349081	1.43717	1.00205	1.97968	2.52315	-0.217444	1.0879	1.16279	1.70835
2.01	-0.308207	0.02294	0.00307201	-0.0907272	1.3868	-0.619593	0.303566	-0.103841	-0.496337	0.145298	-0.589647	0.183015	-0.129736	0.30589	-0.0058017	-0.285196	0.0498478	-0.696858	0.0171485	-0.129736	0.0452085	-0.0634255	0.119678	2.79283	-0.367754	1.38573	1.09073	1.98954	2.50951	-0.256574	1.07959	1.24384	1.71217
2.02	-0.292292	0.0214115	0.00372363	-0.0893624	1.40871	-0.619584	0.276161	-0.0942845	-0.475142	0.127096	-0.56644	0.253816	-0.129736	0.28369	-0.00731698	-0.296358	0.0401508	-0.691101	0.0187993	-0.129736	0.027588	-0.0602188	0.110533	2.78205	-0.388594	1.33757	1.17679	1.99785	2.49908	-0.290311	1.07443	1.31669	1.71817
2.03	-0.277403	0.0190327	0.00154104	-0.0884365	1.42992	-0.618963	0.250113	-0.0825525	-0.447903	0.107046	-0.525185	0.238251	-0.129736	0.26392	-0.0105624	-0.314175	0.0290026	-0.674753	0.0250296	-0.129736	0.0101482	-0.0575313	0.10288	2.76819	-0.409689	1.29349	1.26243	1.97414	2.4914	-0.321426	1.07179	1.3862	1.70796
2.04	-0.264597	0.0192956	-5.43122e-05	-0.0879231	1.44995	-0.618372	0.229752	-0.0764243	-0.438015	0.0929105	-0.487087	0.21444	-0.129736	0.247719	-0.0102167	-0.328543	0.0179665	-0.647201	0.0374744	-0.129736	-0.00495828	-0.058432	0.0924724	2.74911	-0.428645	1.24662	1.33358	2.01309	2.48562	-0.351302	1.07081	1.44672	1.7097
2.05	-0.254242	0.021326	0.000858718	-0.0879111	1.4687	-0.618217	0.216159	-0.0753302	-0.446845	0.0862105	-0.452475	0.191831	-0.129736	0.235824	-0.00692263	-0.332197	0.0088843	-0.610583	0.0567006	-0.129736	-0.0172358	-0.0611409	0.077847	2.72588	-0.444857	1.20505	1.39908	2.01668	2.48122	-0.380961	1.07186	1.50123	1.7121
2.06	-0.246133	0.0241559	0.00481703	-0.0882197	1.4862	-0.61876	0.208898	-0.0782052	-0.46866	0.0871541	-0.420995	0.173309	-0.129736	0.227891	-0.00182015	-0.325393	0.00264966	-0.568579	0.0815829	-0.129736	-0.027244	-0.0640113	0.0599875	2.70159	-0.458596	1.16908	1.45663	2.01851	2.47835	-0.410339	1.075	1.55166	1.71383
2.07	-0.240732	0.0271077	0.010188	-0.0887166	1.50245	-0.619807	0.20791	-0.0834614	-0.492917	0.0944709	-0.39457	0.154604	-0.129736	0.224214	0.00363171	-0.313025	0	-0.524521	0.110892	-0.129736	-0.0348837	-0.0660168	0.0410648	2.67879	-0.469984	1.1397	1.50779	2.01716	2.47832	-0.440267	1.08179	1.59974	1.71505
2.08	-0.238626	0.0297448	0.0152104	-0.0894054	1.51745	-0.620926	0.213035	-0.0892881	-0.509571	0.1055	-0.376719	0.129082	-0.129736	0.225294	0.00813584	-0.298543	0	-0.482349	0.142405	-0.129736	-0.0395404	-0.0668328	0.0227087	2.65813	-0.479091	1.11618	1.55359	2.01181	2.48187	-0.471545	1.09338	1.64624	1.7159
2.09	-0.239268	0.0315744	0.0195704	-0.0902737	1.5313	-0.621868	0.222708	-0.0942188	-0.514315	0.117478	-0.369676	0.0944027	-0.129736	0.230442	0.0108026	-0.282735	0.000859335	-0.446148	0.17321	-0.129736	-0.0417832	-0.0668234	0.00697092	2.64144	-0.488734	1.09999	1.59558	2.00385	2.48767	-0.501496	1.10765	1.68955	1.71716
2.1	-0.240673	0.0322104	0.0229782	-0.0912906	1.54419	-0.622538	0.23389	-0.097222	-0.507345	0.128287	-0.372649	0.0537189	-0.129736	0.237296	0.0110583	-0.267015	0.00370948	-0.418146	0.201401	-0.129736	-0.0439721	-0.066689	-0.00311101	2.63163	-0.502959	1.0934	1.6353	1.99549	2.49331	-0.525424	1.12053	1.72686	1.71982
2.11	-0.241256	0.0317738	0.0245829	-0.0924902	1.55624	-0.622877	0.244235	-0.0979565	-0.490255	0.136546	-0.38258	0.0124098	-0.129736	0.243703	0.00893229	-0.253705	0.00645112	-0.398647	0.226288	-0.129736	-0.047943	-0.0664204	-0.00725587	2.6283	-0.520786	1.09335	1.67056	2.00311	2.49815	-0.543475	1.13083	1.75806	1.72328
2.12	-0.241739	0.0303929	0.0246286	-0.0939122	1.56735	-0.62298	0.254157	-0.0968128	-0.466414	0.142006	-0.395487	-0.0247229	-0.129736	0.250178	0.0048553	-0.243784	0.00843463	-0.387015	0.248171	-0.129736	-0.0526313	-0.064853	-0.0084336	2.62885	-0.537731	1.09811	1.70262	1.99911	2.50238	-0.560147	1.13922	1.7855	1.72671
2.13	-0.243639	0.0280076	0.0236372	-0.0954886	1.57739	-0.622957	0.265274	-0.0942201	-0.439368	0.145309	-0.407313	-0.0546244	-0.129736	0.258054	-0.000956559	-0.237534	0.00948648	-0.381653	0.26781	-0.129736	-0.0557035	-0.0614237	-0.00841461	2.63112	-0.552063	1.10559	1.72997	1.99759	2.5054	-0.577469	1.14592	1.81018	1.73004
2.14	-0.246896	0.0251288	0.0204743	-0.0970939	1.58629	-0.622717	0.27778	-0.0904482	-0.409574	0.147079	-0.414573	-0.0754106	-0.129736	0.266545	-0.00824653	-0.236313	0.0091111	-0.380226	0.28475	-0.129736	-0.0566941	-0.0573632	-0.00574254	2.63423	-0.565237	1.11484	1.75309	2.00541	2.50694	-0.593772	1.15109	1.83094	1.7359
2.15	-0.250452	0.02282	0.0140691	-0.0986873	1.59404	-0.622169	0.290643	-0.0862013	-0.376311	0.147701	-0.415072	-0.085539	-0.129736	0.274098	-0.0161187	-0.240785	0.00724548	-0.380656	0.297649	-0.129736	-0.0569393	-0.0539378	-0.000404243	2.63681	-0.576624	1.1238	1.77356	2.00734	2.50927	-0.609587	1.15721	1.84918	1.73991
2.16	-0.253518	0.0214452	0.00582612	-0.100329	1.60068	-0.621497	0.302809	-0.0824052	-0.341892	0.147736	-0.408426	-0.0844363	-0.129736	0.280551	-0.0236187	-0.248803	0.00521085	-0.381771	0.30621	-0.129736	-0.0579481	-0.0507825	0.00449258	2.63783	-0.583977	1.13106	1.79278	1.98011	2.51512	-0.627873	1.16685	1.86783	1.73584
2.17	-0.255378	0.020449	-0.00185663	-0.102028	1.60637	-0.620964	0.313227	-0.0794387	-0.310336	0.147811	-0.395613	-0.073151	-0.129736	0.28616	-0.0305062	-0.257318	0.00464854	-0.382846	0.311349	-0.129736	-0.0605438	-0.0472827	0.00740949	2.63794	-0.588033	1.13421	1.80466	1.98339	2.5232	-0.647738	1.178	1.8847	1.73617
2.18	-0.255814	0.0195585	-0.00747733	-0.10367	1.6112	-0.620618	0.321212	-0.0773943	-0.283461	0.14782	-0.378832	-0.0551295	-0.129736	0.290927	-0.0366136	-0.263526	0.00595048	-0.38363	0.3118	-0.129736	-0.0644096	-0.0443425	0.00677221	2.63538	-0.590994	1.1341	1.81302	1.99288	2.53394	-0.666543	1.19219	1.89909	1.73732
2.19	-0.255737	0.0189909	-0.0108129	-0.105096	1.61508	-0.62043	0.327405	-0.0765333	-0.261126	0.147592	-0.359322	-0.0321805	-0.129736	0.295516	-0.0416009	-0.266014	0.0087354	-0.384348	0.305791	-0.129736	-0.0681892	-0.0427814	0.00284318	2.63016	-0.594155	1.1317	1.8198	2.00192	2.5472	-0.68255	1.20964	1.91113	1.73829
2.2	-0.256159	0.0188183	-0.0122656	-0.106244	1.61794	-0.62047	0.333087	-0.0770484	-0.243302	0.147611	-0.338066	-0.0049235	-0.129736	0.300902	-0.0453912	-0.265412	0.0128798	-0.385665	0.294783	-0.129736	-0.0710649	-0.041897	-0.00374912	2.62378	-0.596549	1.12791	1.82483	2.00965	2.5631	-0.697413	1.23014	1.9227	1.73832
2.21	-0.256643	0.0187047	-0.0126279	-0.107189	1.61979	-0.620818	0.33844	-0.0785282	-0.229537	0.148657	-0.316728	0.0246098	-0.129736	0.306613	-0.0484322	-0.263464	0.0182475	-0.387734	0.281475	-0.129736	-0.0737233	-0.0404423	-0.0108189	2.61896	-0.59776	1.12554	1.82768	2.01173	2.5792	-0.712138	1.2513	1.93444	1.7363
2.22	-0.25591	0.0182451	-0.0124869	-0.108081	1.62074	-0.621358	0.342408	-0.0800139	-0.21768	0.150687	-0.297953	0.0510721	-0.129736	0.311208	-0.0513843	-0.260952	0.0244272	-0.389977	0.265918	-0.129736	-0.0774034	-0.0381573	-0.0179116	2.61509	-0.597619	1.12392	1.82706	2.01574	2.59502	-0.726395	1.27324	1.94474	1.73505
2.23	-0.253434	0.0170234	-0.0115702	-0.109043	1.62083	-0.621982	0.344556	-0.0808817	-0.206969	0.153823	-0.282451	0.0718411	-0.129736	0.314157	-0.0546244	-0.257003	0.0309331	-0.392512	0.246215	-0.129736	-0.0827073	-0.0351067	-0.0242125	2.61329	-0.597624	1.12552	1.82503	2.01012	2.60874	-0.737964	1.2938	1.95353	1.72533
2.24	-0.249651	0.014805	-0.00925287	-0.110097	1.62003	-0.622687	0.345591	-0.081132	-0.198893	0.158734	-0.2699	0.0869893	-0.129736	0.316287	-0.058251	-0.251592	0.0379822	-0.395739	0.224371	-0.129736	-0.0893646	-0.0311467	-0.0298239	2.61424	-0.598506	1.12918	1.81957	2.02427	2.61937	-0.746083	1.30974	1.95742	1.7291
2.25	-0.245424	0.01191	-0.00574475	-0.111091	1.61827	-0.623448	0.346514	-0.0810645	-0.194221	0.16565	-0.260071	0.0967493	-0.129736	0.31846	-0.0621516	-0.246028	0.045708	-0.399446	0.204459	-0.129736	-0.0964285	-0.0265571	-0.0349779	2.61779	-0.60031	1.13666	1.81544	2.02161	2.62768	-0.751892	1.32207	1.96	1.73072
